<svg height="1470" width="720" xmlns="http://www.w3.org/2000/svg">
<rect height="1470" fill="#555" width="720"></rect>
<text fill="#7f7" font-family="Courier New" font-size="12" xml:space="preserve">
<tspan x="10" y="26">22 megabytes installed</tspan>
<tspan x="10" y="42"></tspan>
<tspan x="10" y="58">node_modules</tspan>
<tspan x="10" y="74">└─┬ react-slack-chat@1.6.0 </tspan>
<tspan x="10" y="90">  ├── classnames@2.2.5 </tspan>
<tspan x="10" y="106">  ├── gh-emoji@0.2.5 </tspan>
<tspan x="10" y="122">  ├── html2canvas@0.5.0-beta4 </tspan>
<tspan x="10" y="138">  ├─┬ react@15.5.4 </tspan>
<tspan x="10" y="154">  │ ├─┬ fbjs@0.8.12 </tspan>
<tspan x="10" y="170">  │ │ ├── core-js@1.2.7 </tspan>
<tspan x="10" y="186">  │ │ ├─┬ isomorphic-fetch@2.2.1 </tspan>
<tspan x="10" y="202">  │ │ │ ├─┬ node-fetch@1.6.3 </tspan>
<tspan x="10" y="218">  │ │ │ │ ├─┬ encoding@0.1.12 </tspan>
<tspan x="10" y="234">  │ │ │ │ │ └── iconv-lite@0.4.15 </tspan>
<tspan x="10" y="250">  │ │ │ │ └── is-stream@1.1.0 </tspan>
<tspan x="10" y="266">  │ │ │ └── whatwg-fetch@2.0.3 </tspan>
<tspan x="10" y="282">  │ │ ├─┬ promise@7.1.1 </tspan>
<tspan x="10" y="298">  │ │ │ └── asap@2.0.5 </tspan>
<tspan x="10" y="314">  │ │ ├── setimmediate@1.0.5 </tspan>
<tspan x="10" y="330">  │ │ └── ua-parser-js@0.7.12 </tspan>
<tspan x="10" y="346">  │ ├─┬ loose-envify@1.3.1 </tspan>
<tspan x="10" y="362">  │ │ └── js-tokens@3.0.1 </tspan>
<tspan x="10" y="378">  │ ├── object-assign@4.1.1 </tspan>
<tspan x="10" y="394">  │ └── prop-types@15.5.8 </tspan>
<tspan x="10" y="410">  ├── react-dom@15.5.4 </tspan>
<tspan x="10" y="426">  └─┬ slack@7.7.3 </tspan>
<tspan x="10" y="442">    ├─┬ httpplease@0.16.4 </tspan>
<tspan x="10" y="458">    │ ├─┬ urllite@0.5.0 </tspan>
<tspan x="10" y="474">    │ │ └── xtend@4.0.1 </tspan>
<tspan x="10" y="490">    │ ├── xmlhttprequest@1.8.0 </tspan>
<tspan x="10" y="506">    │ └── xtend@3.0.0 </tspan>
<tspan x="10" y="522">    ├─┬ query-string@4.3.4 </tspan>
<tspan x="10" y="538">    │ └── strict-uri-encode@1.1.0 </tspan>
<tspan x="10" y="554">    ├─┬ request@2.81.0 </tspan>
<tspan x="10" y="570">    │ ├── aws-sign2@0.6.0 </tspan>
<tspan x="10" y="586">    │ ├── aws4@1.6.0 </tspan>
<tspan x="10" y="602">    │ ├── caseless@0.12.0 </tspan>
<tspan x="10" y="618">    │ ├─┬ combined-stream@1.0.5 </tspan>
<tspan x="10" y="634">    │ │ └── delayed-stream@1.0.0 </tspan>
<tspan x="10" y="650">    │ ├── extend@3.0.0 </tspan>
<tspan x="10" y="666">    │ ├── forever-agent@0.6.1 </tspan>
<tspan x="10" y="682">    │ ├─┬ form-data@2.1.4 </tspan>
<tspan x="10" y="698">    │ │ └── asynckit@0.4.0 </tspan>
<tspan x="10" y="714">    │ ├─┬ har-validator@4.2.1 </tspan>
<tspan x="10" y="730">    │ │ ├─┬ ajv@4.11.7 </tspan>
<tspan x="10" y="746">    │ │ │ ├── co@4.6.0 </tspan>
<tspan x="10" y="762">    │ │ │ └─┬ json-stable-stringify@1.0.1 </tspan>
<tspan x="10" y="778">    │ │ │   └── jsonify@0.0.0 </tspan>
<tspan x="10" y="794">    │ │ └── har-schema@1.0.5 </tspan>
<tspan x="10" y="810">    │ ├─┬ hawk@3.1.3 </tspan>
<tspan x="10" y="826">    │ │ ├── boom@2.10.1 </tspan>
<tspan x="10" y="842">    │ │ ├── cryptiles@2.0.5 </tspan>
<tspan x="10" y="858">    │ │ ├── hoek@2.16.3 </tspan>
<tspan x="10" y="874">    │ │ └── sntp@1.0.9 </tspan>
<tspan x="10" y="890">    │ ├─┬ http-signature@1.1.1 </tspan>
<tspan x="10" y="906">    │ │ ├── assert-plus@0.2.0 </tspan>
<tspan x="10" y="922">    │ │ ├─┬ jsprim@1.4.0 </tspan>
<tspan x="10" y="938">    │ │ │ ├── assert-plus@1.0.0 </tspan>
<tspan x="10" y="954">    │ │ │ ├── extsprintf@1.0.2 </tspan>
<tspan x="10" y="970">    │ │ │ ├── json-schema@0.2.3 </tspan>
<tspan x="10" y="986">    │ │ │ └── verror@1.3.6 </tspan>
<tspan x="10" y="1002">    │ │ └─┬ sshpk@1.13.0 </tspan>
<tspan x="10" y="1018">    │ │   ├── asn1@0.2.3 </tspan>
<tspan x="10" y="1034">    │ │   ├── assert-plus@1.0.0 </tspan>
<tspan x="10" y="1050">    │ │   ├── bcrypt-pbkdf@1.0.1 </tspan>
<tspan x="10" y="1066">    │ │   ├─┬ dashdash@1.14.1 </tspan>
<tspan x="10" y="1082">    │ │   │ └── assert-plus@1.0.0 </tspan>
<tspan x="10" y="1098">    │ │   ├── ecc-jsbn@0.1.1 </tspan>
<tspan x="10" y="1114">    │ │   ├─┬ getpass@0.1.6 </tspan>
<tspan x="10" y="1130">    │ │   │ └── assert-plus@1.0.0 </tspan>
<tspan x="10" y="1146">    │ │   ├── jodid25519@1.0.2 </tspan>
<tspan x="10" y="1162">    │ │   ├── jsbn@0.1.1 </tspan>
<tspan x="10" y="1178">    │ │   └── tweetnacl@0.14.5 </tspan>
<tspan x="10" y="1194">    │ ├── is-typedarray@1.0.0 </tspan>
<tspan x="10" y="1210">    │ ├── isstream@0.1.2 </tspan>
<tspan x="10" y="1226">    │ ├── json-stringify-safe@5.0.1 </tspan>
<tspan x="10" y="1242">    │ ├─┬ mime-types@2.1.15 </tspan>
<tspan x="10" y="1258">    │ │ └── mime-db@1.27.0 </tspan>
<tspan x="10" y="1274">    │ ├── oauth-sign@0.8.2 </tspan>
<tspan x="10" y="1290">    │ ├── performance-now@0.2.0 </tspan>
<tspan x="10" y="1306">    │ ├── qs@6.4.0 </tspan>
<tspan x="10" y="1322">    │ ├── safe-buffer@5.0.1 </tspan>
<tspan x="10" y="1338">    │ ├── stringstream@0.0.5 </tspan>
<tspan x="10" y="1354">    │ ├─┬ tough-cookie@2.3.2 </tspan>
<tspan x="10" y="1370">    │ │ └── punycode@1.4.1 </tspan>
<tspan x="10" y="1386">    │ ├── tunnel-agent@0.6.0 </tspan>
<tspan x="10" y="1402">    │ └── uuid@3.0.1 </tspan>
<tspan x="10" y="1418">    └─┬ ws@1.1.4 </tspan>
<tspan x="10" y="1434">      ├── options@0.0.6 </tspan>
<tspan x="10" y="1450">      └── ultron@1.0.2</tspan>
</text>
</svg>
